<?xml version="1.0" encoding="UTF-8"?>
<svg xmlns="http://www.w3.org/2000/svg" xmlns:xlink="http://www.w3.org/1999/xlink" width="10pt" height="10pt" viewBox="0 0 10 10" version="1.1">
<g id="black-stone">
<path style=" stroke:none;fill-rule:nonzero;fill:rgb(18.75%,12.5%,6.25%);fill-opacity:1;" d="M 8.800781 5 C 8.800781 2.902344 7.097656 1.199219 5 1.199219 C 2.902344 1.199219 1.199219 2.902344 1.199219 5 C 1.199219 7.097656 2.902344 8.800781 5 8.800781 C 7.097656 8.800781 8.800781 7.097656 8.800781 5 Z M 8.800781 5 "/>
<path style="fill:none;stroke-width:0.49814;stroke-linecap:round;stroke-linejoin:round;stroke:rgb(56.25%,37.5%,18.75%);stroke-opacity:1;stroke-miterlimit:10;" d="M 5 1.199219 C 7.09375 1.308594 8.707031 3.097656 8.597656 5.195312 C 8.492188 7.136719 6.941406 8.6875 5 8.789062 " transform="matrix(1,0,0,-1,0,10)"/>
<path style="fill:none;stroke-width:0.49814;stroke-linecap:round;stroke-linejoin:round;stroke:rgb(0%,0%,0%);stroke-opacity:1;stroke-miterlimit:10;" d="M 8.800781 5 C 8.800781 7.097656 7.097656 8.800781 5 8.800781 C 2.902344 8.800781 1.199219 7.097656 1.199219 5 C 1.199219 2.902344 2.902344 1.199219 5 1.199219 C 7.097656 1.199219 8.800781 2.902344 8.800781 5 Z M 8.800781 5 " transform="matrix(1,0,0,-1,0,10)"/>
</g>
</svg>
