<?xml version="1.0" encoding="UTF-8"?>
<svg xmlns="http://www.w3.org/2000/svg" xmlns:xlink="http://www.w3.org/1999/xlink" width="10pt" height="10pt" viewBox="0 0 10 10" version="1.1">
<g id="black-pawn">
<path style=" stroke:none;fill-rule:nonzero;fill:rgb(18.75%,12.5%,6.25%);fill-opacity:1;" d="M 6 7.5 C 6 7.390625 5.550781 7.300781 5 7.300781 C 4.449219 7.300781 4 7.390625 4 7.5 M 4 7.5 C 3.5 7.5 3 8 3 8.5 C 3 8.722656 3.894531 8.898438 5 8.898438 C 6.105469 8.898438 7 8.722656 7 8.5 C 7 8 6.5 7.5 6 7.5 "/>
<path style="fill:none;stroke-width:0.49814;stroke-linecap:round;stroke-linejoin:round;stroke:rgb(56.25%,37.5%,18.75%);stroke-opacity:1;stroke-miterlimit:10;" d="M 6.699219 1.5 C 6.699219 2 6.101562 2.300781 6 2.300781 C 5.5 2.300781 5.5 2.199219 5 2.300781 " transform="matrix(1,0,0,-1,0,10)"/>
<path style="fill:none;stroke-width:0.49814;stroke-linecap:round;stroke-linejoin:round;stroke:rgb(0%,0%,0%);stroke-opacity:1;stroke-miterlimit:10;" d="M 6 2.5 C 6 2.609375 5.550781 2.699219 5 2.699219 C 4.449219 2.699219 4 2.609375 4 2.5 M 4 2.5 C 3.5 2.5 3 2 3 1.5 C 3 1.277344 3.894531 1.101562 5 1.101562 C 6.105469 1.101562 7 1.277344 7 1.5 C 7 2 6.5 2.5 6 2.5 " transform="matrix(1,0,0,-1,0,10)"/>
<path style=" stroke:none;fill-rule:nonzero;fill:rgb(18.75%,12.5%,6.25%);fill-opacity:1;" d="M 4.5 4.898438 C 4.601562 6.398438 4.5 7 4 7.5 C 4 7.609375 4.449219 7.699219 5 7.699219 C 5.550781 7.699219 6 7.609375 6 7.5 M 6 7.5 C 5.5 7 5.398438 6.398438 5.5 4.898438 L 4.5 4.898438 "/>
<path style="fill:none;stroke-width:0.49814;stroke-linecap:round;stroke-linejoin:round;stroke:rgb(56.25%,37.5%,18.75%);stroke-opacity:1;stroke-miterlimit:10;" d="M 5.898438 2.5 C 5.398438 3 5.300781 3.601562 5.398438 5.101562 " transform="matrix(1,0,0,-1,0,10)"/>
<path style="fill:none;stroke-width:0.49814;stroke-linecap:round;stroke-linejoin:round;stroke:rgb(0%,0%,0%);stroke-opacity:1;stroke-miterlimit:10;" d="M 4.5 5.101562 C 4.601562 3.601562 4.5 3 4 2.5 C 4 2.390625 4.449219 2.300781 5 2.300781 C 5.550781 2.300781 6 2.390625 6 2.5 M 6 2.5 C 5.5 3 5.398438 3.601562 5.5 5.101562 L 4.5 5.101562 " transform="matrix(1,0,0,-1,0,10)"/>
<path style=" stroke:none;fill-rule:nonzero;fill:rgb(18.75%,12.5%,6.25%);fill-opacity:1;" d="M 6 4 C 6 3.449219 5.550781 3 5 3 C 4.449219 3 4 3.449219 4 4 C 4 4.550781 4.449219 5 5 5 C 5.550781 5 6 4.550781 6 4 Z M 6 4 "/>
<path style="fill:none;stroke-width:0.49814;stroke-linecap:round;stroke-linejoin:round;stroke:rgb(56.25%,37.5%,18.75%);stroke-opacity:1;stroke-miterlimit:10;" d="M 5 7 C 5.542969 6.902344 5.90625 6.386719 5.8125 5.839844 C 5.738281 5.425781 5.414062 5.101562 5 5.03125 " transform="matrix(1,0,0,-1,0,10)"/>
<path style="fill:none;stroke-width:0.49814;stroke-linecap:round;stroke-linejoin:round;stroke:rgb(0%,0%,0%);stroke-opacity:1;stroke-miterlimit:10;" d="M 6 6 C 6 6.550781 5.550781 7 5 7 C 4.449219 7 4 6.550781 4 6 C 4 5.449219 4.449219 5 5 5 C 5.550781 5 6 5.449219 6 6 Z M 6 6 " transform="matrix(1,0,0,-1,0,10)"/>
</g>
</svg>
