<?xml version="1.0" encoding="UTF-8"?>
<svg xmlns="http://www.w3.org/2000/svg" xmlns:xlink="http://www.w3.org/1999/xlink" width="10pt" height="10pt" viewBox="0 0 10 10" version="1.1">
<g id="gray-bishop">
<path style=" stroke:none;fill-rule:nonzero;fill:rgb(56.25%,50%,43.75%);fill-opacity:1;" d="M 7 7.5 C 7 7.390625 6.105469 7.300781 5 7.300781 C 3.894531 7.300781 3 7.390625 3 7.5 M 3 7.5 C 2.5 7.5 2 8 2 8.5 C 2 8.722656 3.34375 8.898438 5 8.898438 C 6.65625 8.898438 8 8.722656 8 8.5 C 8 8 7.5 7.5 7 7.5 "/>
<path style="fill:none;stroke-width:0.49814;stroke-linecap:round;stroke-linejoin:round;stroke:rgb(87.5%,75%,62.5%);stroke-opacity:1;stroke-miterlimit:10;" d="M 7.699219 1.5 C 7.699219 2 7.101562 2.300781 7 2.300781 C 6.5 2.300781 6 2.199219 5 2.300781 " transform="matrix(1,0,0,-1,0,10)"/>
<path style="fill:none;stroke-width:0.49814;stroke-linecap:round;stroke-linejoin:round;stroke:rgb(0%,0%,0%);stroke-opacity:1;stroke-miterlimit:10;" d="M 7 2.5 C 7 2.609375 6.105469 2.699219 5 2.699219 C 3.894531 2.699219 3 2.609375 3 2.5 M 3 2.5 C 2.5 2.5 2 2 2 1.5 C 2 1.277344 3.34375 1.101562 5 1.101562 C 6.65625 1.101562 8 1.277344 8 1.5 C 8 2 7.5 2.5 7 2.5 " transform="matrix(1,0,0,-1,0,10)"/>
<path style=" stroke:none;fill-rule:nonzero;fill:rgb(56.25%,50%,43.75%);fill-opacity:1;" d="M 5 4.5 L 4.199219 4.5 C 4.300781 5 4.199219 6 3 7.5 C 3 7.609375 3.894531 7.699219 5 7.699219 C 6.105469 7.699219 7 7.609375 7 7.5 M 7 7.5 C 5.800781 6 5.699219 5 5.800781 4.5 L 5 4.5 "/>
<path style="fill:none;stroke-width:0.49814;stroke-linecap:round;stroke-linejoin:round;stroke:rgb(87.5%,75%,62.5%);stroke-opacity:1;stroke-miterlimit:10;" d="M 6.898438 2.5 C 5.699219 4 5.601562 5 5.699219 5.5 " transform="matrix(1,0,0,-1,0,10)"/>
<path style="fill:none;stroke-width:0.49814;stroke-linecap:round;stroke-linejoin:round;stroke:rgb(0%,0%,0%);stroke-opacity:1;stroke-miterlimit:10;" d="M 5 5.5 L 4.199219 5.5 C 4.300781 5 4.199219 4 3 2.5 C 3 2.390625 3.894531 2.300781 5 2.300781 C 6.105469 2.300781 7 2.390625 7 2.5 M 7 2.5 C 5.800781 4 5.699219 5 5.800781 5.5 L 5 5.5 " transform="matrix(1,0,0,-1,0,10)"/>
<path style=" stroke:none;fill-rule:nonzero;fill:rgb(56.25%,50%,43.75%);fill-opacity:1;" d="M 5 1.800781 C 4.5 2.300781 3.5 3 3.5 3.5 C 3.5 4 3.5 4 4 4.5 C 4.300781 4.800781 4.699219 4.898438 5 4.898438 C 5.300781 4.898438 5.699219 4.800781 6 4.5 C 6.5 4 6.5 4 6.5 3.5 C 6.5 3 5.5 2.300781 5 1.800781 "/>
<path style="fill:none;stroke-width:0.49814;stroke-linecap:round;stroke-linejoin:round;stroke:rgb(87.5%,75%,62.5%);stroke-opacity:1;stroke-miterlimit:10;" d="M 5 5.101562 C 5.300781 5.101562 5.5 5.199219 5.800781 5.5 C 6.300781 6 6.300781 6 6.300781 6.5 C 6.300781 7 5.5 7.699219 5 8.199219 " transform="matrix(1,0,0,-1,0,10)"/>
<path style="fill:none;stroke-width:0.49814;stroke-linecap:round;stroke-linejoin:round;stroke:rgb(0%,0%,0%);stroke-opacity:1;stroke-miterlimit:10;" d="M 5 8.199219 C 4.5 7.699219 3.5 7 3.5 6.5 C 3.5 6 3.5 6 4 5.5 C 4.300781 5.199219 4.699219 5.101562 5 5.101562 C 5.300781 5.101562 5.699219 5.199219 6 5.5 C 6.5 6 6.5 6 6.5 6.5 C 6.5 7 5.5 7.699219 5 8.199219 " transform="matrix(1,0,0,-1,0,10)"/>
<path style="fill:none;stroke-width:0.49814;stroke-linecap:round;stroke-linejoin:round;stroke:rgb(0%,0%,0%);stroke-opacity:1;stroke-miterlimit:10;" d="M 4.5 6.5 L 5.5 6.5 M 5 6 L 5 7 " transform="matrix(1,0,0,-1,0,10)"/>
<path style="fill-rule:nonzero;fill:rgb(87.5%,75%,62.5%);fill-opacity:1;stroke-width:0.49814;stroke-linecap:round;stroke-linejoin:round;stroke:rgb(0%,0%,0%);stroke-opacity:1;stroke-miterlimit:10;" d="M 5.5 8.5 C 5.5 8.777344 5.277344 9 5 9 C 4.722656 9 4.5 8.777344 4.5 8.5 C 4.5 8.222656 4.722656 8 5 8 C 5.277344 8 5.5 8.222656 5.5 8.5 Z M 5.5 8.5 " transform="matrix(1,0,0,-1,0,10)"/>
</g>
</svg>
