<?xml version="1.0" encoding="UTF-8"?>
<svg xmlns="http://www.w3.org/2000/svg" xmlns:xlink="http://www.w3.org/1999/xlink" width="10pt" height="10pt" viewBox="0 0 10 10" version="1.1">
<g id="gray-queen">
<path style=" stroke:none;fill-rule:nonzero;fill:rgb(56.25%,50%,43.75%);fill-opacity:1;" d="M 7 7.5 C 7 7.390625 6.105469 7.300781 5 7.300781 C 3.894531 7.300781 3 7.390625 3 7.5 M 3 7.5 C 2.5 7.5 2 8 2 8.5 C 2 8.722656 3.34375 8.898438 5 8.898438 C 6.65625 8.898438 8 8.722656 8 8.5 C 8 8 7.5 7.5 7 7.5 "/>
<path style="fill:none;stroke-width:0.49814;stroke-linecap:round;stroke-linejoin:round;stroke:rgb(87.5%,75%,62.5%);stroke-opacity:1;stroke-miterlimit:10;" d="M 7.699219 1.5 C 7.699219 2 7.101562 2.300781 7 2.300781 C 6.5 2.300781 6 2.199219 5 2.300781 " transform="matrix(1,0,0,-1,0,10)"/>
<path style="fill:none;stroke-width:0.49814;stroke-linecap:round;stroke-linejoin:round;stroke:rgb(0%,0%,0%);stroke-opacity:1;stroke-miterlimit:10;" d="M 7 2.5 C 7 2.609375 6.105469 2.699219 5 2.699219 C 3.894531 2.699219 3 2.609375 3 2.5 M 3 2.5 C 2.5 2.5 2 2 2 1.5 C 2 1.277344 3.34375 1.101562 5 1.101562 C 6.65625 1.101562 8 1.277344 8 1.5 C 8 2 7.5 2.5 7 2.5 " transform="matrix(1,0,0,-1,0,10)"/>
<path style=" stroke:none;fill-rule:nonzero;fill:rgb(56.25%,50%,43.75%);fill-opacity:1;" d="M 3 7.5 C 3 7.609375 3.894531 7.699219 5 7.699219 C 6.105469 7.699219 7 7.609375 7 7.5 M 7 7.5 C 7 6.5 8 3 8.398438 2.5 C 7.898438 3 7 4.199219 6.601562 5 C 6.601562 4.199219 6.699219 2.199219 6.800781 1.699219 C 6.601562 2.199219 5.800781 4.101562 5.601562 4.898438 C 5.5 4.101562 5.101562 2 5 1.5 C 4.898438 2 4.5 4.101562 4.398438 4.898438 C 4.199219 4.101562 3.398438 2.199219 3.199219 1.699219 C 3.300781 2.199219 3.398438 4.199219 3.398438 5 C 3 4.199219 2.101562 3 1.601562 2.5 C 2 3 3 6.5 3 7.5 "/>
<path style="fill:none;stroke-width:0.49814;stroke-linecap:round;stroke-linejoin:round;stroke:rgb(87.5%,75%,62.5%);stroke-opacity:1;stroke-miterlimit:10;" d="M 6.800781 2.5 C 6.800781 3.5 8 7 8.398438 7.5 " transform="matrix(1,0,0,-1,0,10)"/>
<path style="fill:none;stroke-width:0.49814;stroke-linecap:round;stroke-linejoin:round;stroke:rgb(0%,0%,0%);stroke-opacity:1;stroke-miterlimit:10;" d="M 3 2.5 C 3 2.390625 3.894531 2.300781 5 2.300781 C 6.105469 2.300781 7 2.390625 7 2.5 M 7 2.5 C 7 3.5 8 7 8.398438 7.5 C 7.898438 7 7 5.800781 6.601562 5 C 6.601562 5.800781 6.699219 7.800781 6.800781 8.300781 C 6.601562 7.800781 5.800781 5.898438 5.601562 5.101562 C 5.5 5.898438 5.101562 8 5 8.5 C 4.898438 8 4.5 5.898438 4.398438 5.101562 C 4.199219 5.898438 3.398438 7.800781 3.199219 8.300781 C 3.300781 7.800781 3.398438 5.800781 3.398438 5 C 3 5.800781 2.101562 7 1.601562 7.5 C 2 7 3 3.5 3 2.5 " transform="matrix(1,0,0,-1,0,10)"/>
<path style="fill-rule:nonzero;fill:rgb(87.5%,75%,62.5%);fill-opacity:1;stroke-width:0.49814;stroke-linecap:round;stroke-linejoin:round;stroke:rgb(0%,0%,0%);stroke-opacity:1;stroke-miterlimit:10;" d="M 8.898438 7.5 C 8.898438 7.777344 8.675781 8 8.398438 8 C 8.125 8 7.898438 7.777344 7.898438 7.5 C 7.898438 7.222656 8.125 7 8.398438 7 C 8.675781 7 8.898438 7.222656 8.898438 7.5 Z M 7.300781 8.300781 C 7.300781 8.574219 7.074219 8.800781 6.800781 8.800781 C 6.523438 8.800781 6.300781 8.574219 6.300781 8.300781 C 6.300781 8.023438 6.523438 7.800781 6.800781 7.800781 C 7.074219 7.800781 7.300781 8.023438 7.300781 8.300781 Z M 5.5 8.5 C 5.5 8.777344 5.277344 9 5 9 C 4.722656 9 4.5 8.777344 4.5 8.5 C 4.5 8.222656 4.722656 8 5 8 C 5.277344 8 5.5 8.222656 5.5 8.5 Z M 3.699219 8.300781 C 3.699219 8.574219 3.476562 8.800781 3.199219 8.800781 C 2.921875 8.800781 2.699219 8.574219 2.699219 8.300781 C 2.699219 8.023438 2.921875 7.800781 3.199219 7.800781 C 3.476562 7.800781 3.699219 8.023438 3.699219 8.300781 Z M 2.101562 7.5 C 2.101562 7.777344 1.875 8 1.601562 8 C 1.324219 8 1.101562 7.777344 1.101562 7.5 C 1.101562 7.222656 1.324219 7 1.601562 7 C 1.875 7 2.101562 7.222656 2.101562 7.5 Z M 2.101562 7.5 " transform="matrix(1,0,0,-1,0,10)"/>
</g>
</svg>
