<?xml version="1.0" encoding="UTF-8"?>
<svg xmlns="http://www.w3.org/2000/svg" xmlns:xlink="http://www.w3.org/1999/xlink" width="10pt" height="10pt" viewBox="0 0 10 10" version="1.1">
<defs>
<clipPath id="clip1">
  <path d="M 4 1 L 8 1 L 8 7 L 4 7 Z M 4 1 "/>
</clipPath>
<clipPath id="clip2">
  <path d="M 7.253906 4 C 7.253906 2.753906 6.246094 1.746094 5 1.746094 C 3.753906 1.746094 2.746094 2.753906 2.746094 4 C 2.746094 5.246094 3.753906 6.253906 5 6.253906 C 6.246094 6.253906 7.253906 5.246094 7.253906 4 Z M 7.253906 4 "/>
</clipPath>
</defs>
<g id="gray-sun">
<path style=" stroke:none;fill-rule:nonzero;fill:rgb(56.25%,50%,43.75%);fill-opacity:1;" d="M 7 7.5 C 7 7.390625 6.105469 7.300781 5 7.300781 C 3.894531 7.300781 3 7.390625 3 7.5 M 3 7.5 C 2.5 7.5 2 8 2 8.5 C 2 8.722656 3.34375 8.898438 5 8.898438 C 6.65625 8.898438 8 8.722656 8 8.5 C 8 8 7.5 7.5 7 7.5 "/>
<path style="fill:none;stroke-width:0.49814;stroke-linecap:round;stroke-linejoin:round;stroke:rgb(87.5%,75%,62.5%);stroke-opacity:1;stroke-miterlimit:10;" d="M 7.699219 1.5 C 7.699219 2 7.101562 2.300781 7 2.300781 C 6.5 2.300781 6 2.199219 5 2.300781 " transform="matrix(1,0,0,-1,0,10)"/>
<path style="fill:none;stroke-width:0.49814;stroke-linecap:round;stroke-linejoin:round;stroke:rgb(0%,0%,0%);stroke-opacity:1;stroke-miterlimit:10;" d="M 7 2.5 C 7 2.609375 6.105469 2.699219 5 2.699219 C 3.894531 2.699219 3 2.609375 3 2.5 M 3 2.5 C 2.5 2.5 2 2 2 1.5 C 2 1.277344 3.34375 1.101562 5 1.101562 C 6.65625 1.101562 8 1.277344 8 1.5 C 8 2 7.5 2.5 7 2.5 " transform="matrix(1,0,0,-1,0,10)"/>
<path style=" stroke:none;fill-rule:nonzero;fill:rgb(56.25%,50%,43.75%);fill-opacity:1;" d="M 5 4.5 L 4.199219 4.5 C 4.300781 5 4.199219 6 3 7.5 C 3 7.609375 3.894531 7.699219 5 7.699219 C 6.105469 7.699219 7 7.609375 7 7.5 M 7 7.5 C 5.800781 6 5.699219 5 5.800781 4.5 L 5 4.5 "/>
<path style="fill:none;stroke-width:0.49814;stroke-linecap:round;stroke-linejoin:round;stroke:rgb(87.5%,75%,62.5%);stroke-opacity:1;stroke-miterlimit:10;" d="M 6.898438 2.5 C 5.699219 4 5.601562 5 5.699219 5.5 " transform="matrix(1,0,0,-1,0,10)"/>
<path style="fill:none;stroke-width:0.49814;stroke-linecap:round;stroke-linejoin:round;stroke:rgb(0%,0%,0%);stroke-opacity:1;stroke-miterlimit:10;" d="M 5 5.5 L 4.199219 5.5 C 4.300781 5 4.199219 4 3 2.5 C 3 2.390625 3.894531 2.300781 5 2.300781 C 6.105469 2.300781 7 2.390625 7 2.5 M 7 2.5 C 5.800781 4 5.699219 5 5.800781 5.5 L 5 5.5 " transform="matrix(1,0,0,-1,0,10)"/>
<path style=" stroke:none;fill-rule:nonzero;fill:rgb(56.25%,50%,43.75%);fill-opacity:1;" d="M 2.5 4 L 2.226562 5.148438 L 3.230469 5.769531 L 3.851562 6.773438 L 5 6.5 L 6.148438 6.773438 L 6.769531 5.769531 L 7.769531 5.148438 L 7.5 4 L 7.769531 2.851562 L 6.769531 2.230469 L 6.148438 1.230469 L 5 1.5 L 3.851562 1.230469 L 3.230469 2.230469 L 2.226562 2.851562 Z M 2.5 4 "/>
<path style="fill:none;stroke-width:0.49814;stroke-linecap:round;stroke-linejoin:round;stroke:rgb(87.5%,75%,62.5%);stroke-opacity:1;stroke-miterlimit:10;" d="M 6.148438 3.226562 L 6.566406 4.230469 L 7.570312 4.851562 L 7.300781 6 L 7.570312 7.148438 L 6.566406 7.769531 L 6.148438 8.769531 " transform="matrix(1,0,0,-1,0,10)"/>
<path style="fill:none;stroke-width:0.49814;stroke-linecap:round;stroke-linejoin:round;stroke:rgb(0%,0%,0%);stroke-opacity:1;stroke-miterlimit:10;" d="M 2.5 6 L 2.226562 4.851562 L 3.230469 4.230469 L 3.851562 3.226562 L 5 3.5 L 6.148438 3.226562 L 6.769531 4.230469 L 7.769531 4.851562 L 7.5 6 L 7.769531 7.148438 L 6.769531 7.769531 L 6.148438 8.769531 L 5 8.5 L 3.851562 8.769531 L 3.230469 7.769531 L 2.226562 7.148438 Z M 2.5 6 " transform="matrix(1,0,0,-1,0,10)"/>
<g clip-path="url(#clip1)" clip-rule="nonzero">
<g clip-path="url(#clip2)" clip-rule="nonzero">
<path style="fill:none;stroke-width:0.49814;stroke-linecap:round;stroke-linejoin:round;stroke:rgb(87.5%,75%,62.5%);stroke-opacity:1;stroke-miterlimit:10;" d="M 5 3.5 C 6.375 3.621094 7.394531 4.832031 7.273438 6.207031 C 7.167969 7.417969 6.207031 8.375 5 8.480469 " transform="matrix(1,0,0,-1,0,10)"/>
</g>
</g>
</g>
</svg>
