<?xml version="1.0" encoding="UTF-8"?>
<svg xmlns="http://www.w3.org/2000/svg" xmlns:xlink="http://www.w3.org/1999/xlink" width="10pt" height="10pt" viewBox="0 0 10 10" version="1.1">
<g id="white-dragon">
<path style=" stroke:none;fill-rule:nonzero;fill:rgb(100%,98.724365%,75%);fill-opacity:1;" d="M 7 7.5 C 7 7.390625 6.105469 7.300781 5 7.300781 C 3.894531 7.300781 3 7.390625 3 7.5 M 3 7.5 C 2.5 7.5 2 8 2 8.5 C 2 8.722656 3.34375 8.898438 5 8.898438 C 6.65625 8.898438 8 8.722656 8 8.5 C 8 8 7.5 7.5 7 7.5 "/>
<path style="fill:none;stroke-width:0.49814;stroke-linecap:round;stroke-linejoin:round;stroke:rgb(100%,100%,100%);stroke-opacity:1;stroke-miterlimit:10;" d="M 7.699219 1.5 C 7.699219 2 7.101562 2.300781 7 2.300781 C 6.5 2.300781 6 2.199219 5 2.300781 " transform="matrix(1,0,0,-1,0,10)"/>
<path style="fill:none;stroke-width:0.49814;stroke-linecap:round;stroke-linejoin:round;stroke:rgb(0%,0%,0%);stroke-opacity:1;stroke-miterlimit:10;" d="M 7 2.5 C 7 2.609375 6.105469 2.699219 5 2.699219 C 3.894531 2.699219 3 2.609375 3 2.5 M 3 2.5 C 2.5 2.5 2 2 2 1.5 C 2 1.277344 3.34375 1.101562 5 1.101562 C 6.65625 1.101562 8 1.277344 8 1.5 C 8 2 7.5 2.5 7 2.5 " transform="matrix(1,0,0,-1,0,10)"/>
<path style=" stroke:none;fill-rule:nonzero;fill:rgb(100%,98.724365%,75%);fill-opacity:1;" d="M 7 7.5 C 6.5 7 6.398438 5.601562 6.398438 5.101562 L 7 4.5 L 6 4.5 L 7.101562 3.5 L 6.101562 3.5 L 7.199219 2.5 L 6.199219 2.5 C 6.699219 2 7.5 1.5 8.5 1.5 C 7 1.199219 4.800781 1.199219 4 2 L 1.800781 2.601562 L 2.199219 3.5 C 4 2.898438 4.199219 3.800781 2.398438 4.199219 L 2.601562 5 C 3.199219 4.898438 3.5 4.601562 4 4.601562 C 4 5.601562 3 7 3 7.5 C 3 7.609375 3.894531 7.699219 5 7.699219 C 6.105469 7.699219 7 7.609375 7 7.5 "/>
<path style="fill:none;stroke-width:0.49814;stroke-linecap:round;stroke-linejoin:round;stroke:rgb(100%,100%,100%);stroke-opacity:1;stroke-miterlimit:10;" d="M 6.898438 2.5 C 6.398438 3 6.300781 4.398438 6.300781 4.898438 L 6.800781 5.5 M 6 5.5 L 6.898438 6.5 M 6.101562 6.5 L 7 7.5 M 6.199219 7.5 C 6.699219 8 7.300781 8.5 8.300781 8.5 " transform="matrix(1,0,0,-1,0,10)"/>
<path style="fill:none;stroke-width:0.49814;stroke-linecap:round;stroke-linejoin:round;stroke:rgb(0%,0%,0%);stroke-opacity:1;stroke-miterlimit:10;" d="M 2.601562 7.398438 L 3 7.5 M 4.5 7.5 C 4.699219 7.5 4.699219 7.5 4.898438 7.601562 " transform="matrix(1,0,0,-1,0,10)"/>
<path style="fill:none;stroke-width:0.49814;stroke-linecap:round;stroke-linejoin:round;stroke:rgb(0%,0%,0%);stroke-opacity:1;stroke-miterlimit:10;" d="M 7 2.5 C 6.5 3 6.398438 4.398438 6.398438 4.898438 L 7 5.5 L 6 5.5 L 7.101562 6.5 L 6.101562 6.5 L 7.199219 7.5 L 6.199219 7.5 C 6.699219 8 7.5 8.5 8.5 8.5 C 7 8.800781 4.800781 8.800781 4 8 L 1.800781 7.398438 L 2.199219 6.5 C 4 7.101562 4.199219 6.199219 2.398438 5.800781 L 2.601562 5 C 3.199219 5.101562 3.5 5.398438 4 5.398438 C 4 4.398438 3 3 3 2.5 C 3 2.390625 3.894531 2.300781 5 2.300781 C 6.105469 2.300781 7 2.390625 7 2.5 " transform="matrix(1,0,0,-1,0,10)"/>
</g>
</svg>
