<?xml version="1.0" encoding="UTF-8"?>
<svg xmlns="http://www.w3.org/2000/svg" xmlns:xlink="http://www.w3.org/1999/xlink" width="10pt" height="10pt" viewBox="0 0 10 10" version="1.1">
<g id="white-knight">
<path style=" stroke:none;fill-rule:nonzero;fill:rgb(100%,98.724365%,75%);fill-opacity:1;" d="M 7 7.5 C 7 7.390625 6.105469 7.300781 5 7.300781 C 3.894531 7.300781 3 7.390625 3 7.5 M 3 7.5 C 2.5 7.5 2 8 2 8.5 C 2 8.722656 3.34375 8.898438 5 8.898438 C 6.65625 8.898438 8 8.722656 8 8.5 C 8 8 7.5 7.5 7 7.5 "/>
<path style="fill:none;stroke-width:0.49814;stroke-linecap:round;stroke-linejoin:round;stroke:rgb(100%,100%,100%);stroke-opacity:1;stroke-miterlimit:10;" d="M 7.699219 1.5 C 7.699219 2 7.101562 2.300781 7 2.300781 C 6.5 2.300781 6 2.199219 5 2.300781 " transform="matrix(1,0,0,-1,0,10)"/>
<path style="fill:none;stroke-width:0.49814;stroke-linecap:round;stroke-linejoin:round;stroke:rgb(0%,0%,0%);stroke-opacity:1;stroke-miterlimit:10;" d="M 7 2.5 C 7 2.609375 6.105469 2.699219 5 2.699219 C 3.894531 2.699219 3 2.609375 3 2.5 M 3 2.5 C 2.5 2.5 2 2 2 1.5 C 2 1.277344 3.34375 1.101562 5 1.101562 C 6.65625 1.101562 8 1.277344 8 1.5 C 8 2 7.5 2.5 7 2.5 " transform="matrix(1,0,0,-1,0,10)"/>
<path style=" stroke:none;fill-rule:nonzero;fill:rgb(100%,98.724365%,75%);fill-opacity:1;" d="M 3 7.5 C 3 7.609375 3.894531 7.699219 5 7.699219 C 6.105469 7.699219 7 7.609375 7 7.5 M 7 7.5 C 7 7 6.5 6.5 6.5 6 C 6.5 5 7 4.5 7 3.5 C 7 2.5 6 1.5 5 1.5 C 4.800781 1.5 4.699219 2 4.5 2 C 4 2 2 3 2 3.5 C 2 4.5 3.300781 3.800781 2.800781 4.300781 C 2.601562 4.5 3 4.300781 3.5 4.300781 C 4 4.300781 4.300781 4.199219 4.5 4 C 3.5 5 2.800781 6.5 3 7.5 "/>
<path style="fill:none;stroke-width:0.49814;stroke-linecap:round;stroke-linejoin:round;stroke:rgb(100%,100%,100%);stroke-opacity:1;stroke-miterlimit:10;" d="M 6.601562 2.5 C 6.601562 3 6.199219 3.5 6.199219 4 C 6.199219 5 6.601562 5.5 6.601562 6.5 C 6.601562 7.5 5.898438 8.199219 4.898438 8.199219 " transform="matrix(1,0,0,-1,0,10)"/>
<path style="fill:none;stroke-width:0.49814;stroke-linecap:round;stroke-linejoin:round;stroke:rgb(0%,0%,0%);stroke-opacity:1;stroke-miterlimit:10;" d="M 2.5 6.898438 Z M 2.5 6.898438 " transform="matrix(1,0,0,-1,0,10)"/>
<path style="fill:none;stroke-width:0.49814;stroke-linecap:round;stroke-linejoin:round;stroke:rgb(0%,0%,0%);stroke-opacity:1;stroke-miterlimit:10;" d="M 4.199219 7.199219 C 4.398438 7.300781 4.398438 7.300781 4.5 7.300781 " transform="matrix(1,0,0,-1,0,10)"/>
<path style="fill:none;stroke-width:0.49814;stroke-linecap:round;stroke-linejoin:round;stroke:rgb(0%,0%,0%);stroke-opacity:1;stroke-miterlimit:10;" d="M 3 2.5 C 3 2.390625 3.894531 2.300781 5 2.300781 C 6.105469 2.300781 7 2.390625 7 2.5 M 7 2.5 C 7 3 6.5 3.5 6.5 4 C 6.5 5 7 5.5 7 6.5 C 7 7.5 6 8.5 5 8.5 C 4.800781 8.5 4.699219 8 4.5 8 C 4 8 2 7 2 6.5 C 2 5.5 3.300781 6.199219 2.800781 5.699219 C 2.601562 5.5 3 5.699219 3.5 5.699219 C 4 5.699219 4.300781 5.800781 4.5 6 C 3.5 5 2.800781 3.5 3 2.5 " transform="matrix(1,0,0,-1,0,10)"/>
<path style="fill-rule:nonzero;fill:rgb(100%,98.724365%,75%);fill-opacity:1;stroke-width:0.49814;stroke-linecap:round;stroke-linejoin:round;stroke:rgb(0%,0%,0%);stroke-opacity:1;stroke-miterlimit:10;" d="M 5.398438 7.898438 C 5.699219 8.398438 6.398438 8.601562 6.5 8.5 C 6.601562 8.398438 6.398438 7.699219 5.898438 7.398438 " transform="matrix(1,0,0,-1,0,10)"/>
</g>
</svg>
